<!--?xml version="1.0" encoding="utf-8"?-->
<!-- Generator: Adobe Illustrator 19.1.1, SVG Export Plug-In . SVG Version: 6.00 Build 0)  -->
<svg version="1.1" id="_x31_0" xmlns="http://www.w3.org/2000/svg" xmlns:xlink="http://www.w3.org/1999/xlink" x="0px" y="0px" viewBox="0 0 512 512" style="width: 256px; height: 256px; opacity: 1;" xml:space="preserve">
<style type="text/css">
	.st0{fill:#374149;}
</style>
<g>
	<path class="st0" d="M489.946,119.462l-94.925-15.594l-28.379-40.234c-8.082-11.457-21.226-18.266-35.23-18.266h-83.846
		c-14.02,0-27.16,6.809-35.23,18.266l-28.378,40.234H67.366c-37.206,0-67.362,30.16-67.362,67.367V441.85L0,443.51h0.004v0.16
		h206.37c24.855,14.59,53.785,22.961,84.628,22.961c30.847,0,59.777-8.371,84.628-22.961h98.394c20.972,0,37.976-17,37.976-37.976
		V145.426C512,132.536,502.668,121.548,489.946,119.462z M420.817,298.934c0,71.578-58.238,129.815-129.815,129.815
		c-71.586,0-129.823-58.238-129.823-129.815c0-71.586,58.238-129.823,129.823-129.823
		C362.579,169.11,420.817,227.348,420.817,298.934z M32.203,194.914c-0.012-0.031-0.024-0.078-0.035-0.113
		c-0.84-2.559,2.847-4.965,5.668-4.336c0.105,0.023,0.202,0.058,0.304,0.09c0.34,0.106,0.676,0.234,0.973,0.446
		c17.496,12.374,49.641,14.441,82.621,3.434c18.863-6.294,34.933-15.832,46.468-26.656c2.906-2.742,7.958-1.262,6.797,1.996
		c-6.75,18.898-27.687,37.32-55.847,46.726c-34.429,11.477-68.3,5.68-82.105-12.519c-0.187-0.25-0.375-0.496-0.554-0.746
		C34.672,200.688,33.206,197.918,32.203,194.914z M32.203,348.847c0-7.863,10.57-10.352,14.109-3.332
		c10.883,21.554,27.449,40.683,48.168,56.128c5.758,4.301,2.738,13.438-4.434,13.438H39.652c-4.114,0-7.449-3.344-7.449-7.457
		V348.847z" style="fill: rgb(75, 75, 75);"></path>
	<path class="st0" d="M291.002,212.664c-6.953,0-13.679,0.906-20.152,2.458c-0.477,0.106-0.977,0.144-1.454,0.258l0.008,0.019
		c-0.05,0.016-0.106,0.02-0.156,0.032l25.129,73.034c2.527,7.312-4.488,14.328-11.813,11.812l-70.812-24.37l-3.41-1.184
		c0,0.004,0,0.004,0,0.004l-0.157-0.047c-2.258,7.688-3.465,15.828-3.465,24.254c0,47.64,38.629,86.273,86.281,86.273
		c47.644,0,86.273-38.633,86.273-86.273C377.274,251.282,338.646,212.664,291.002,212.664z" style="fill: rgb(75, 75, 75);"></path>
</g>
</svg>
